<svg width="351" height="105" viewBox="0 0 351 105" fill="none" xmlns="http://www.w3.org/2000/svg">
<g filter="url(#filter0_dii_4_2)">
<g clip-path="url(#clip0_4_2)">
<rect x="7" y="7" width="337" height="91" rx="45.5" fill="#E3E8EF"/>
<g filter="url(#filter1_f_4_2)">
<path d="M63.9907 45.05C29.6325 45.05 23.8001 63.0167 25.1786 72C6.59968 38.4 42.9941 16 56.0375 16H314.361C336.312 16 334.085 45.05 314.361 45.05H63.9907Z" fill="white"/>
</g>
<path d="M147.002 61.3C147.002 68.5 142.052 72.9 133.202 72.9C125.652 72.9 120.552 68.85 118.552 62.8L122.902 59.9C124.552 64.6 128.552 67.9 133.152 67.9C138.202 67.9 141.202 65.4 141.202 61.85C141.202 58.45 139.102 56.5 134.452 54.9L128.802 52.95C122.652 50.75 120.002 48.05 120.002 42.75C120.002 36.95 124.902 32.1 132.702 32.1C139.402 32.1 143.752 34.55 145.852 39.9L141.502 43C140.052 38.85 137.002 36.9 132.902 36.9C128.302 36.9 125.552 39.45 125.552 42.5C125.552 45.05 127.152 46.75 131.252 48.1L137.102 50C143.402 52.15 147.002 55.35 147.002 61.3ZM167.385 67.95L166.235 72.6C158.285 72.6 155.535 70.9 155.535 64.75V48.7H151.635V44.35H155.735V35.65H160.985V44.35H165.885V48.7H160.985V63.75C160.985 67.65 161.785 67.95 167.385 67.95ZM197.401 67.75L196.301 72.3C195.601 72.45 194.901 72.55 194.251 72.55C191.601 72.55 189.401 71.25 189.101 68.7C187.551 71.2 183.201 72.6 178.901 72.6C173.251 72.6 170.451 69.95 170.351 65.35C170.351 65.25 170.351 65.15 170.351 65.05C170.351 59.7 174.001 57 179.951 55.7C184.051 54.75 187.701 53.25 187.701 51.7C187.701 48.95 185.651 48.1 181.801 48.1C178.951 48.1 174.801 49.9 173.201 52.5L170.851 48.5C173.151 45.6 177.301 43.75 182.151 43.75C189.401 43.75 193.401 46.25 193.401 52.1V65.25C193.401 67.15 194.351 68 195.851 68C196.301 68 196.851 67.9 197.401 67.75ZM187.951 63.85V56.7C186.751 57.9 184.201 58.8 181.301 59.55C177.851 60.4 175.651 61.45 175.651 64.55C175.651 64.65 175.651 64.75 175.651 64.85C175.801 67.15 177.201 68.3 180.051 68.3C183.001 68.3 187.051 66.6 187.951 63.85ZM216.042 48.85C215.292 48.75 214.592 48.65 213.942 48.65C210.442 48.65 207.892 50.25 206.842 53V72H201.392V44.35H206.192V47.25C207.842 44.95 210.842 43.9 214.992 43.75L216.042 48.85ZM234.182 67.95L233.032 72.6C225.082 72.6 222.332 70.9 222.332 64.75V48.7H218.432V44.35H222.532V35.65H227.782V44.35H232.682V48.7H227.782V63.75C227.782 67.65 228.582 67.95 234.182 67.95Z" fill="#383E3F"/>
</g>
<rect x="7" y="7" width="337" height="91" rx="45.5" stroke="#34BEED" stroke-width="4"/>
</g>
<defs>
<filter id="filter0_dii_4_2" x="0" y="-5" width="356" height="114" filterUnits="userSpaceOnUse" color-interpolation-filters="sRGB">
<feFlood flood-opacity="0" result="BackgroundImageFix"/>
<feColorMatrix in="SourceAlpha" type="matrix" values="0 0 0 0 0 0 0 0 0 0 0 0 0 0 0 0 0 0 127 0" result="hardAlpha"/>
<feOffset/>
<feGaussianBlur stdDeviation="2.5"/>
<feComposite in2="hardAlpha" operator="out"/>
<feColorMatrix type="matrix" values="0 0 0 0 0.203922 0 0 0 0 0.745098 0 0 0 0 0.929412 0 0 0 1 0"/>
<feBlend mode="normal" in2="BackgroundImageFix" result="effect1_dropShadow_4_2"/>
<feBlend mode="normal" in="SourceGraphic" in2="effect1_dropShadow_4_2" result="shape"/>
<feColorMatrix in="SourceAlpha" type="matrix" values="0 0 0 0 0 0 0 0 0 0 0 0 0 0 0 0 0 0 127 0" result="hardAlpha"/>
<feMorphology radius="5" operator="erode" in="SourceAlpha" result="effect2_innerShadow_4_2"/>
<feOffset dy="-10"/>
<feGaussianBlur stdDeviation="9.5"/>
<feComposite in2="hardAlpha" operator="arithmetic" k2="-1" k3="1"/>
<feColorMatrix type="matrix" values="0 0 0 0 0.695347 0 0 0 0 0.737503 0 0 0 0 0.79371 0 0 0 1 0"/>
<feBlend mode="normal" in2="shape" result="effect2_innerShadow_4_2"/>
<feColorMatrix in="SourceAlpha" type="matrix" values="0 0 0 0 0 0 0 0 0 0 0 0 0 0 0 0 0 0 127 0" result="hardAlpha"/>
<feOffset dx="10" dy="9"/>
<feGaussianBlur stdDeviation="30"/>
<feComposite in2="hardAlpha" operator="arithmetic" k2="-1" k3="1"/>
<feColorMatrix type="matrix" values="0 0 0 0 1 0 0 0 0 1 0 0 0 0 1 0 0 0 1 0"/>
<feBlend mode="normal" in2="effect2_innerShadow_4_2" result="effect3_innerShadow_4_2"/>
</filter>
<filter id="filter1_f_4_2" x="17" y="13" width="316" height="62" filterUnits="userSpaceOnUse" color-interpolation-filters="sRGB">
<feFlood flood-opacity="0" result="BackgroundImageFix"/>
<feBlend mode="normal" in="SourceGraphic" in2="BackgroundImageFix" result="shape"/>
<feGaussianBlur stdDeviation="1.5" result="effect1_foregroundBlur_4_2"/>
</filter>
<clipPath id="clip0_4_2">
<rect x="7" y="7" width="337" height="91" rx="45.5" fill="white"/>
</clipPath>
</defs>
</svg>
