<svg width="41" height="41" viewBox="0 0 41 41" fill="none" xmlns="http://www.w3.org/2000/svg">
<path d="M19.1162 27.3162C19.4921 27.6921 19.9622 27.8711 20.5266 27.8533C21.0897 27.8369 21.5592 27.6408 21.935 27.265C22.3108 26.8892 22.4988 26.4108 22.4988 25.83C22.4988 25.2492 22.3108 24.7708 21.935 24.395L20.09 22.55H26.7012C27.2821 22.55 27.7604 22.3532 28.1363 21.9596C28.5121 21.5674 28.7 21.0808 28.7 20.5C28.7 19.9192 28.5039 19.4319 28.1116 19.0383C27.718 18.6461 27.2308 18.45 26.65 18.45H20.09L21.9863 16.5537C22.3621 16.1779 22.5418 15.7078 22.5254 15.1433C22.5076 14.5803 22.3108 14.1108 21.935 13.735C21.5592 13.3592 21.0808 13.1713 20.5 13.1713C19.9192 13.1713 19.4408 13.3592 19.065 13.735L13.735 19.065C13.3592 19.4408 13.1713 19.9192 13.1713 20.5C13.1713 21.0808 13.3592 21.5592 13.735 21.935L19.1162 27.3162ZM20.5 41C17.6642 41 14.9992 40.4615 12.505 39.3846C10.0108 38.309 7.84125 36.8488 5.99625 35.0038C4.15125 33.1588 2.69097 30.9892 1.6154 28.495C0.538467 26.0008 0 23.3358 0 20.5C0 17.6642 0.538467 14.9992 1.6154 12.505C2.69097 10.0108 4.15125 7.84125 5.99625 5.99625C7.84125 4.15125 10.0108 2.69028 12.505 1.61335C14.9992 0.537783 17.6642 0 20.5 0C23.3358 0 26.0008 0.537783 28.495 1.61335C30.9892 2.69028 33.1588 4.15125 35.0038 5.99625C36.8488 7.84125 38.309 10.0108 39.3846 12.505C40.4615 14.9992 41 17.6642 41 20.5C41 23.3358 40.4615 26.0008 39.3846 28.495C38.309 30.9892 36.8488 33.1588 35.0038 35.0038C33.1588 36.8488 30.9892 38.309 28.495 39.3846C26.0008 40.4615 23.3358 41 20.5 41Z" fill="black"/>
</svg>
