<svg width="565" height="565" viewBox="0 0 565 565" fill="none" xmlns="http://www.w3.org/2000/svg">
<circle cx="282.128" cy="282.128" r="282.128" fill="#111D48"/>
<circle cx="282.128" cy="282.128" r="239.302" fill="#253383"/>
<circle cx="281.752" cy="282.504" r="214.132" fill="#15173C"/>
<circle cx="281.752" cy="282.504" r="199.856" fill="#2F4681"/>
<rect x="196.851" y="194.597" width="160.035" height="42.8263" rx="21.4132" fill="#747EB1"/>
<rect x="12.7729" y="229.158" width="160.035" height="42.8263" rx="21.4132" fill="#10143B"/>
<rect x="224.65" y="271.985" width="160.035" height="42.8263" rx="21.4132" fill="#10143B"/>
<rect x="240.429" y="101.431" width="160.035" height="42.8263" rx="21.4132" fill="#10143B"/>
<rect x="130.733" y="123.22" width="56.3505" height="42.8263" rx="21.4132" fill="#747EB1"/>
<rect x="209" y="384" width="56.3505" height="42.8263" rx="21.4132" fill="#747EB1"/>
<rect x="270.482" y="260.715" width="232.915" height="42.8263" rx="21.4132" fill="#747EB1"/>
<rect x="320.07" y="123.22" width="129.23" height="42.8263" rx="21.4132" fill="#747EB1"/>
<rect x="243.23" y="417" width="160.035" height="42.8263" rx="21.4132" fill="#10143B"/>
<path d="M191 460.202C191 448.376 200.587 438.789 212.413 438.789H298.817C310.643 438.789 320.23 448.376 320.23 460.202C320.23 472.028 310.643 481.615 298.817 481.615H212.413C200.587 481.615 191 472.028 191 460.202Z" fill="#747EB1"/>
<rect x="43.5776" y="299.784" width="129.23" height="42.8263" rx="21.4132" fill="#747EB1"/>
<path fill-rule="evenodd" clip-rule="evenodd" d="M100 200.523C125.967 148.848 169.812 108.146 223.161 87C244.848 102.761 259 128.69 259 158.005C259 206.051 220.986 245 174.093 245C142.272 245 114.54 227.065 100 200.523Z" fill="#D9D9D9" fill-opacity="0.2"/>
</svg>
