<svg width="41" height="41" viewBox="0 0 41 41" fill="none" xmlns="http://www.w3.org/2000/svg">
<path d="M21.935 27.265L27.265 21.935C27.6408 21.5592 27.8287 21.0808 27.8287 20.5C27.8287 19.9192 27.6408 19.4408 27.265 19.065L21.8837 13.6838C21.5079 13.3079 21.0385 13.1282 20.4754 13.1446C19.911 13.1624 19.4408 13.3592 19.065 13.735C18.6892 14.1108 18.5012 14.5892 18.5012 15.17C18.5012 15.7508 18.6892 16.2292 19.065 16.605L20.91 18.45H14.2988C13.7179 18.45 13.2396 18.6461 12.8637 19.0383C12.4879 19.4319 12.3 19.9192 12.3 20.5C12.3 21.0808 12.4968 21.5674 12.8904 21.9596C13.2826 22.3532 13.7692 22.55 14.35 22.55H20.91L19.0137 24.4462C18.6379 24.8221 18.4582 25.2922 18.4746 25.8566C18.4924 26.4197 18.6892 26.8892 19.065 27.265C19.4408 27.6408 19.9192 27.8287 20.5 27.8287C21.0808 27.8287 21.5592 27.6408 21.935 27.265ZM20.5 41C17.6642 41 14.9992 40.4615 12.505 39.3846C10.0108 38.309 7.84125 36.8488 5.99625 35.0038C4.15125 33.1588 2.69097 30.9892 1.6154 28.495C0.538467 26.0008 0 23.3358 0 20.5C0 17.6642 0.538467 14.9992 1.6154 12.505C2.69097 10.0108 4.15125 7.84125 5.99625 5.99625C7.84125 4.15125 10.0108 2.69028 12.505 1.61335C14.9992 0.537783 17.6642 0 20.5 0C23.3358 0 26.0008 0.537783 28.495 1.61335C30.9892 2.69028 33.1588 4.15125 35.0038 5.99625C36.8488 7.84125 38.309 10.0108 39.3846 12.505C40.4615 14.9992 41 17.6642 41 20.5C41 23.3358 40.4615 26.0008 39.3846 28.495C38.309 30.9892 36.8488 33.1588 35.0038 35.0038C33.1588 36.8488 30.9892 38.309 28.495 39.3846C26.0008 40.4615 23.3358 41 20.5 41Z" fill="black"/>
</svg>
