<svg width="1440" height="312" viewBox="0 0 1440 312" fill="none" xmlns="http://www.w3.org/2000/svg">
<g filter="url(#filter0_i_22_101)">
<path fill-rule="evenodd" clip-rule="evenodd" d="M-175 3H130.147C177.636 3.00003 235.936 3 305.96 62.5109C353.955 103.3 398.918 128.992 486.319 128.992H793.992H795.508H1103.18C1190.58 128.992 1235.55 103.3 1283.54 62.5109C1353.56 3 1411.86 3.00003 1459.35 3H1764.5V322H795.508H793.992H-175V3Z" fill="#E1E2E6"/>
</g>
<path d="M130.147 3V0.5V3ZM-175 3V0.5H-177.5V3H-175ZM305.96 62.5109L307.579 60.606L305.96 62.5109ZM1283.54 62.5109L1285.16 64.4159L1283.54 62.5109ZM1459.35 3V0.5V3ZM1764.5 3H1767V0.5H1764.5V3ZM1764.5 322V324.5H1767V322H1764.5ZM-175 322H-177.5V324.5H-175V322ZM130.147 0.5H-175V5.5H130.147V0.5ZM307.579 60.606C272.286 30.6122 239.865 15.5519 210.219 8.01593C180.615 0.490715 153.877 0.500014 130.147 0.5V5.5C153.906 5.50001 180.063 5.50931 208.987 12.8618C237.869 20.2036 269.609 34.8987 304.341 64.4159L307.579 60.606ZM486.319 126.492C442.874 126.492 410.116 120.108 382.309 108.733C354.491 97.354 331.482 80.921 307.579 60.606L304.341 64.4159C328.432 84.8902 351.903 101.698 380.416 113.361C408.94 125.029 442.364 131.492 486.319 131.492V126.492ZM793.992 126.492H486.319V131.492H793.992V126.492ZM793.992 131.492H795.508V126.492H793.992V131.492ZM795.508 131.492H1103.18V126.492H795.508V131.492ZM1103.18 131.492C1147.14 131.492 1180.56 125.029 1209.08 113.361C1237.6 101.698 1261.07 84.8902 1285.16 64.4159L1281.92 60.606C1258.02 80.921 1235.01 97.354 1207.19 108.733C1179.38 120.108 1146.63 126.492 1103.18 126.492V131.492ZM1285.16 64.4159C1319.89 34.8987 1351.63 20.2036 1380.51 12.8618C1409.44 5.50931 1435.59 5.50001 1459.35 5.5V0.5C1435.62 0.500014 1408.89 0.490715 1379.28 8.01593C1349.64 15.5519 1317.21 30.6122 1281.92 60.606L1285.16 64.4159ZM1459.35 5.5H1764.5V0.5H1459.35V5.5ZM1762 3V322H1767V3H1762ZM1764.5 319.5H795.508V324.5H1764.5V319.5ZM795.508 319.5H793.992V324.5H795.508V319.5ZM-175 324.5H793.992V319.5H-175V324.5ZM-177.5 3V322H-172.5V3H-177.5Z" fill="#36BFED"/>
<defs>
<filter id="filter0_i_22_101" x="-177.5" y="0.5" width="1944.5" height="358" filterUnits="userSpaceOnUse" color-interpolation-filters="sRGB">
<feFlood flood-opacity="0" result="BackgroundImageFix"/>
<feBlend mode="normal" in="SourceGraphic" in2="BackgroundImageFix" result="shape"/>
<feColorMatrix in="SourceAlpha" type="matrix" values="0 0 0 0 0 0 0 0 0 0 0 0 0 0 0 0 0 0 127 0" result="hardAlpha"/>
<feOffset dy="34"/>
<feGaussianBlur stdDeviation="20"/>
<feComposite in2="hardAlpha" operator="arithmetic" k2="-1" k3="1"/>
<feColorMatrix type="matrix" values="0 0 0 0 0 0 0 0 0 0 0 0 0 0 0 0 0 0 0.09 0"/>
<feBlend mode="normal" in2="shape" result="effect1_innerShadow_22_101"/>
</filter>
</defs>
</svg>
